<svg width="38" height="40" viewBox="0 0 38 40" fill="none" xmlns="http://www.w3.org/2000/svg">
    <path d="M0.373047 0.352051V9.71208C0.372914 10.6153 0.585996 11.5055 0.994501 12.3079C1.40301 13.1103 1.99507 13.8016 2.72102 14.324L37.373 39.3521V32.1216C37.373 30.7815 37.0618 29.4603 36.4641 28.2651C35.8663 27.0701 34.9993 26.0349 33.9334 25.2439L0.373047 0.352051Z" fill="white"/>
    <path d="M26.8655 1.25378V10.2384C26.8655 11.1068 27.0752 11.9626 27.4774 12.7344C27.8793 13.506 28.4624 14.1712 29.177 14.6743L37.373 19.2885V12.3433C37.3737 11.0559 37.0674 9.7865 36.4786 8.63855C35.8902 7.49056 35.0364 6.4965 33.9866 5.73715L26.8655 1.25378Z" fill="white"/>
    <path d="M0.373047 20.4156V29.8557C0.372913 30.7667 0.582727 31.6644 0.984945 32.4739C1.38713 33.283 1.97001 33.9802 2.68473 34.5073L10.8806 39.3521V32.0598C10.8807 30.7081 10.5741 29.3755 9.98571 28.17C9.39727 26.9648 8.54365 25.9206 7.49417 25.1232L0.373047 20.4156Z" fill="white"/>
</svg>
